<!DOCTYPE svg PUBLIC "-//W3C//DTD SVG 1.1//EN" "http://www.w3.org/Graphics/SVG/1.1/DTD/svg11.dtd">
<!-- Uploaded to: SVG Repo, www.svgrepo.com, Transformed by: SVG Repo Mixer Tools -->
<svg fill="#000000" width="64px" height="64px" viewBox="0 0 516.00 516.00" xmlns="http://www.w3.org/2000/svg" stroke="#000000" stroke-width="0.00516">
<g id="SVGRepo_bgCarrier" stroke-width="0"/>
<g id="SVGRepo_tracerCarrier" stroke-linecap="round" stroke-linejoin="round" stroke="#CCCCCC" stroke-width="5.16"/>
<g id="SVGRepo_iconCarrier">
<title>vol-high</title>
<path d="M64 176L128 176 240 64 240 448 128 336 64 336 64 176ZM280 400Q330 393 365 351 400 309 400 256 400 203 365 161 330 119 280 112L280 64Q326 69 365 97 403 124 426 167 448 209 448 256 448 303 426 346 403 388 365 416 326 443 280 448L280 400ZM284 164Q314 173 333 198 352 223 352 256 352 286 333 313 314 339 284 349L284 164Z"/>
</g>
</svg>